<svg height="398pt" viewBox="-34 0 398 398.352" width="398pt" xmlns="http://www.w3.org/2000/svg"><path d="m41.878906 37.585938h246.378906l41.703126-37.585938h-329.785157zm0 0" fill="#857e87"/><path d="m288.257812 37.585938 41.703126-37.585938v398.351562l-41.703126-37.582031zm0 0" fill="#857e87"/><path d="m313.222656 15.085938v368.183593l16.738282 15.082031v-398.351562zm0 0" fill="#736b75"/><path d="m41.878906 360.769531-41.703125 37.582031v-398.351562l41.703125 37.585938zm0 0" fill="#857e87"/><path d="m.175781 0v15.398438l24.617188 22.1875v323.183593l-24.617188 22.183594v15.398437l41.703125-37.582031v-323.183593zm0 0" fill="#736b75"/><path d="m288.257812 360.769531h-246.378906l-41.703125 37.582031h329.785157zm0 0" fill="#857e87"/><path d="m288.257812 360.769531h-25.183593l41.703125 37.582031h25.183594zm0 0" fill="#736b75"/><path d="m304.777344 0h25.183594l-41.703126 37.585938h-25.183593zm0 0" fill="#736b75"/><path d="m41.878906 37.585938h246.382813v323.179687h-246.382813zm0 0" fill="#89e5ff"/><path d="m269.484375 37.585938h18.773437v323.179687h-18.773437zm0 0" fill="#66d4dd"/><path d="m88.347656 73.535156v120.125l104.585938-60.058594zm0 0" fill="#ff8b5a"/><path d="m88.347656 73.535156v16.003906l76.71875 44.0625-76.71875 44.058594v16l104.585938-60.058594zm0 0" fill="#f2754e"/><path d="m41.867188 248.980469c157.972656-1.355469 246.402343-134.96875 246.402343-134.96875v246.765625h-246.402343zm0 0" fill="#ffe07e"/><path d="m269.46875 360.777344h18.800781v-246.765625c-5.785156 8.285156-12.066406 16.214843-18.800781 23.746093zm0 0" fill="#f4c76c"/><path d="m41.867188 248.980469c168.699218 33.65625 246.402343-75.285157 246.402343-75.285157v187.082032h-246.402343zm0 0" fill="#b3e59f"/><g fill="#99cc81"><path d="m269.46875 193.976562v166.800782h18.800781v-187.082032c-5.625 7.328126-11.921875 14.117188-18.800781 20.28125zm0 0"/><path d="m238.199219 298.324219h-146.261719c-4.417969 0-8-3.582031-8-8s3.582031-8 8-8h146.261719c4.417969 0 8 3.582031 8 8s-3.582031 8-8 8zm0 0"/><path d="m223.019531 333.257812h-115.902343c-4.417969 0-8-3.582031-8-8 0-4.421874 3.582031-8 8-8h115.902343c4.417969 0 8 3.578126 8 8 0 4.417969-3.582031 8-8 8zm0 0"/></g></svg>